<svg width="150" height="37" viewBox="0 0 150 37" fill="none" xmlns="http://www.w3.org/2000/svg">
  <g id="logo">
    <g id="symbol">
      <path id="2" d="M10.0966 18.4668L21.0606 7.02435C21.3327 6.74032 21.7976 7.05245 21.6304 7.40699L18.0846 14.929C17.8152 15.5004 18.2375 16.155 18.8756 16.155H24.662C25.4621 16.155 25.8404 17.1302 25.2451 17.6585L11.7078 29.6707C11.4092 29.9357 10.9682 29.575 11.1759 29.2357L16.0769 21.2297C16.4287 20.6552 16.0099 19.9215 15.3302 19.9215H10.7303C9.96437 19.9215 9.57005 19.0163 10.0966 18.4668Z" fill="white" />
      <circle id="1" cx="17.9204" cy="18.562" r="16.1015" stroke="white" stroke-width="3.63784" />
    </g>
    <g id="conduit">
      <path d="M51.1792 19.2403C51.1792 18.2383 51.3413 17.2757 51.6654 16.3523C51.9994 15.4289 52.4955 14.6136 53.1536 13.9063C53.8216 13.1991 54.6418 12.6343 55.6143 12.2119C56.5966 11.7895 57.7214 11.5783 58.9885 11.5783C60.2164 11.5783 61.2822 11.7502 62.186 12.094C63.0897 12.4378 63.8461 12.8946 64.4551 13.4643C65.0739 14.0242 65.5504 14.6725 65.8843 15.4093C66.2183 16.1362 66.4246 16.8926 66.5032 17.6784H61.8913C61.793 17.0301 61.5229 16.5046 61.0809 16.1018C60.6486 15.6991 59.961 15.4977 59.018 15.4977C58.4777 15.4977 58.0013 15.6008 57.5888 15.8071C57.1762 16.0036 56.8373 16.2737 56.5721 16.6175C56.3167 16.9613 56.1202 17.3592 55.9827 17.811C55.855 18.2629 55.7911 18.7393 55.7911 19.2403C55.7911 19.7413 55.855 20.2226 55.9827 20.6843C56.1202 21.1361 56.3216 21.534 56.5868 21.8778C56.8618 22.2118 57.2155 22.4819 57.6477 22.6882C58.0799 22.8846 58.5956 22.9829 59.1948 22.9829C60.0003 22.9829 60.6044 22.8208 61.0072 22.4966C61.4099 22.1626 61.7144 21.6813 61.9207 21.0526H66.5327C66.4148 21.8778 66.1741 22.6489 65.8107 23.366C65.4472 24.0831 64.9512 24.7019 64.3225 25.2225C63.7036 25.7432 62.9472 26.1557 62.0533 26.4602C61.1594 26.7648 60.1378 26.917 58.9885 26.917C57.7214 26.917 56.5966 26.7058 55.6143 26.2834C54.6418 25.861 53.8216 25.2962 53.1536 24.5889C52.4955 23.8817 51.9994 23.0664 51.6654 22.143C51.3413 21.2196 51.1792 20.2521 51.1792 19.2403Z" fill="white" />
      <path d="M66.5492 19.2403C66.5492 18.199 66.7309 17.2167 67.0944 16.2934C67.4676 15.37 68.003 14.5596 68.7004 13.8621C69.3979 13.1647 70.2427 12.6097 71.2348 12.1971C72.2269 11.7846 73.3467 11.5783 74.5943 11.5783C75.8615 11.5783 76.9911 11.7846 77.9832 12.1971C78.9852 12.6097 79.83 13.1647 80.5176 13.8621C81.215 14.5596 81.7504 15.37 82.1237 16.2934C82.4969 17.2167 82.6836 18.199 82.6836 19.2403C82.6836 20.2815 82.4969 21.2687 82.1237 22.2019C81.7504 23.1253 81.215 23.9357 80.5176 24.6331C79.83 25.3306 78.9852 25.8856 77.9832 26.2982C76.9911 26.7107 75.8615 26.917 74.5943 26.917C73.3467 26.917 72.2269 26.7107 71.2348 26.2982C70.2427 25.8856 69.3979 25.3306 68.7004 24.6331C68.003 23.9357 67.4676 23.1253 67.0944 22.2019C66.7309 21.2786 66.5492 20.2913 66.5492 19.2403ZM71.1611 19.2403C71.1611 19.7609 71.2397 20.2471 71.3969 20.699C71.5639 21.141 71.7947 21.534 72.0894 21.8778C72.3939 22.2118 72.7574 22.477 73.1797 22.6734C73.6021 22.8601 74.0737 22.9534 74.5943 22.9534C75.1149 22.9534 75.5913 22.8601 76.0235 22.6734C76.4656 22.477 76.8339 22.2118 77.1286 21.8778C77.4331 21.534 77.6689 21.141 77.8359 20.699C78.0127 20.257 78.1011 19.7707 78.1011 19.2403C78.1011 18.7393 78.0127 18.2629 77.8359 17.811C77.6689 17.3592 77.4331 16.9662 77.1286 16.6323C76.8339 16.2983 76.4705 16.033 76.0383 15.8366C75.6061 15.6401 75.1247 15.5419 74.5943 15.5419C74.0737 15.5419 73.6021 15.6401 73.1797 15.8366C72.7574 16.033 72.3939 16.2983 72.0894 16.6323C71.7947 16.9662 71.5639 17.3592 71.3969 17.811C71.2397 18.2629 71.1611 18.7393 71.1611 19.2403Z" fill="white" />
      <path d="M83.7904 26.5192V11.9761H88.4024V14.0832C88.8051 13.2973 89.4142 12.6883 90.2295 12.2561C91.0448 11.8239 92.0271 11.6077 93.1764 11.6077C94.1194 11.6077 94.9347 11.7551 95.6223 12.0498C96.31 12.3445 96.8551 12.7521 97.2579 13.2728C97.7196 13.8327 98.0241 14.481 98.1714 15.2177C98.3188 15.9545 98.3924 16.8434 98.3924 17.8847V26.5192H93.7805V19.0635C93.7805 18.0222 93.5939 17.1774 93.2206 16.5291C92.8473 15.871 92.1794 15.5419 91.2167 15.5419C90.2737 15.5419 89.5664 15.8759 89.0949 16.5438C88.6332 17.202 88.4024 18.091 88.4024 19.2108V26.5192H83.7904Z" fill="white" />
      <path d="M99.4109 19.2403C99.4109 18.1499 99.5779 17.1381 99.9119 16.2049C100.256 15.2718 100.737 14.4712 101.356 13.8032C101.985 13.1254 102.736 12.5901 103.61 12.1971C104.485 11.8042 105.447 11.6077 106.498 11.6077C106.96 11.6077 107.422 11.6765 107.883 11.814C108.345 11.9417 108.772 12.1185 109.165 12.3445C109.558 12.5606 109.907 12.8209 110.211 13.1254C110.516 13.4201 110.757 13.7295 110.933 14.0537V5.38974H115.545V26.5192H110.933V24.4711C110.757 24.8149 110.516 25.1341 110.211 25.4288C109.907 25.7137 109.558 25.9642 109.165 26.1803C108.772 26.3866 108.345 26.5536 107.883 26.6813C107.422 26.8188 106.96 26.8875 106.498 26.8875C105.457 26.8875 104.494 26.6911 103.61 26.2982C102.736 25.9052 101.985 25.3699 101.356 24.6921C100.737 24.0143 100.256 23.2088 99.9119 22.2756C99.5779 21.3424 99.4109 20.3306 99.4109 19.2403ZM103.993 19.2403C103.993 19.7413 104.077 20.2226 104.244 20.6843C104.421 21.1361 104.656 21.5291 104.951 21.863C105.256 22.1872 105.619 22.4524 106.041 22.6587C106.464 22.8552 106.935 22.9534 107.456 22.9534C107.977 22.9534 108.448 22.8552 108.871 22.6587C109.303 22.4524 109.666 22.1872 109.961 21.863C110.265 21.5291 110.501 21.1361 110.668 20.6843C110.845 20.2324 110.933 19.7511 110.933 19.2403C110.933 18.7393 110.845 18.2678 110.668 17.8258C110.501 17.3837 110.265 16.9908 109.961 16.647C109.666 16.3032 109.308 16.033 108.885 15.8366C108.463 15.6401 107.986 15.5419 107.456 15.5419C106.935 15.5419 106.464 15.6401 106.041 15.8366C105.619 16.033 105.256 16.3032 104.951 16.647C104.656 16.9908 104.421 17.3837 104.244 17.8258C104.077 18.2678 103.993 18.7393 103.993 19.2403Z" fill="white" />
      <path d="M117.477 20.6106V11.9761H122.06V19.4318C122.06 20.4731 122.246 21.3228 122.62 21.9809C122.993 22.6292 123.661 22.9534 124.624 22.9534C125.586 22.9534 126.294 22.6243 126.745 21.9662C127.207 21.2982 127.438 20.3994 127.438 19.2697V11.9761H132.05V26.5192H127.438V24.4416C127.035 25.2078 126.426 25.807 125.611 26.2392C124.796 26.6714 123.813 26.8875 122.664 26.8875C121.721 26.8875 120.906 26.7402 120.218 26.4455C119.54 26.1508 119 25.7432 118.597 25.2225C118.135 24.6626 117.831 24.0143 117.684 23.2776C117.546 22.5408 117.477 21.6518 117.477 20.6106Z" fill="white" />
      <path d="M133.51 7.14316C133.51 6.31802 133.79 5.6255 134.35 5.06558C134.92 4.50567 135.627 4.22571 136.472 4.22571C136.894 4.22571 137.287 4.29938 137.651 4.44673C138.014 4.59407 138.329 4.80036 138.594 5.06558C138.869 5.32098 139.08 5.63041 139.227 5.99386C139.385 6.35732 139.463 6.74042 139.463 7.14316C139.463 7.54591 139.385 7.9241 139.227 8.27773C139.08 8.63136 138.869 8.9457 138.594 9.22074C138.329 9.48597 138.014 9.69716 137.651 9.85433C137.287 10.0017 136.894 10.0753 136.472 10.0753C136.05 10.0753 135.662 10.0017 135.308 9.85433C134.954 9.69716 134.64 9.48597 134.365 9.22074C134.1 8.9457 133.889 8.63136 133.731 8.27773C133.584 7.9241 133.51 7.54591 133.51 7.14316ZM134.173 26.5192V11.9761H138.785V26.5192H134.173Z" fill="white" />
      <path d="M139.465 15.4093V11.9761H141.749V7.65887H146.346V11.9761H149.661V15.4093H146.346V20.6106C146.346 21.1509 146.395 21.5831 146.493 21.9072C146.592 22.2216 146.729 22.4672 146.906 22.644C147.093 22.811 147.304 22.9288 147.539 22.9976C147.785 23.0565 148.05 23.086 148.335 23.086C148.62 23.086 148.91 23.0811 149.204 23.0713C149.509 23.0516 149.774 23.0222 150 22.9829V26.5192C149.656 26.5781 149.224 26.6321 148.703 26.6813C148.193 26.7304 147.598 26.7549 146.921 26.7549C146.38 26.7549 145.806 26.7156 145.197 26.6371C144.588 26.5585 144.028 26.3522 143.517 26.0182C143.006 25.6842 142.584 25.1734 142.25 24.4858C141.916 23.7884 141.749 22.8355 141.749 21.6273V15.4093H139.465Z" fill="white" />
    </g>
  </g>
</svg>
